<?xml version='1.0' encoding='utf-8'?>
<svg xmlns="http://www.w3.org/2000/svg" width="512" height="384" viewBox="0 0 1000000 750000"><style>svg :is(path,line,polyline,circle,ellipse){vector-effect:non-scaling-stroke;stroke-width:1.2px !important;fill:none !important}</style><rect x="0.0" y="0.0" width="1000000.0" height="750000.0" fill="#ffffff"/><defs><style>.C1 {stroke: #16202a; stroke-width: 391; stroke-opacity: 1.000; fill: none; fill-opacity: 1.000;}</style></defs><g stroke-linecap="round" stroke-linejoin="round" fill-rule="evenodd"><path d="M 156250 78125 l 687500 0 c 43147 0 78125 34978 78125 78125 l 0 418750 c -0 43147 -34978 78125 -78125 78125 l -687500 0" class="C1" /><path d="M 0 750000 l 1000000 0 l 0 -31250 l -1000000 0 l 0 31250" class="C1" /><path d="M 0 750000 l 1000000 0 l 0 -750000 l -1000000 0 l 0 750000" class="C1" /><path d="M 570312 389062 c 0 38833 -31480 70312 -70312 70312 c -38833 0 -70312 -31480 -70312 -70312 c 0 -38833 31480 -70312 70312 -70312 c 38833 0 70312 31480 70312 70312" class="C1" /><path d="M 539062 389062 c 0 21574 -17489 39062 -39062 39062 c -21574 0 -39062 -17489 -39062 -39062 c 0 -21574 17489 -39062 39062 -39062 c 21574 0 39062 17489 39062 39062" class="C1" /><path d="M 156250 653125 c -20720 0 -40591 -8231 -55243 -22882 c -14651 -14651 -22882 -34523 -22882 -55243 l 0 -418750 c 0 -20720 8231 -40591 22882 -55243 c 14651 -14651 34523 -22882 55243 -22882" class="C1" /></g></svg>