<?xml version='1.0' encoding='utf-8'?>
<svg xmlns="http://www.w3.org/2000/svg" width="401" height="512" viewBox="0 0 782399 1000000"><style>svg :is(path,line,polyline,circle,ellipse){vector-effect:non-scaling-stroke;stroke-width:1.2px !important;fill:none !important}</style><rect x="0.0" y="0.0" width="782399.0" height="1000000.0" fill="#ffffff"/><defs><style>.C1 {stroke: #16202a; stroke-width: 119; stroke-opacity: 1.000; fill: none; fill-opacity: 1.000;}</style></defs><g stroke-linecap="round" stroke-linejoin="round" fill-rule="evenodd"><path d="M 57260 926861 l -38202 -0 c -10526 -0 -19058 -8533 -19058 -19058 l 0 -172061 c -0 -5055 2008 -9902 5582 -13476 c 3574 -3574 8422 -5582 13476 -5582 l 38202 -0 l 0 210177" class="C1" /><path d="M 67800 921330 l 191020 0 c 5055 -0 9902 -2008 13476 -5582 c 3574 -3574 5582 -8422 5582 -13476 l 0 -160999 c -0 -10526 -8533 -19058 -19058 -19058 l -191020 0 l 0 199115" class="C1" /><path d="M 87375 999986 l 160905 0 c 5055 -0 9902 -2008 13476 -5582 c 3574 -3574 5582 -8422 5582 -13476 l 0 -31321 c 0 -10526 -8533 -19058 -19058 -19058 l -179963 -0 l -0 50379 c -0 10526 8533 19058 19058 19058" class="C1" /><path d="M 67800 703778 l 191020 0 c 5055 0 9902 -2008 13476 -5582 c 3574 -3574 5582 -8422 5582 -13476 l 0 -160999 c 0 -10526 -8533 -19058 -19058 -19058 l -191020 -0 l 0 199115" class="C1" /><path d="M 57260 709309 l -38202 0 c -10526 0 -19058 -8533 -19058 -19058 l 0 -172061 c -0 -5055 2008 -9902 5582 -13476 c 3574 -3574 8422 -5582 13476 -5582 l 38202 0 l -0 210177" class="C1" /><path d="M 67800 486226 l 191020 0 c 5055 0 9902 -2008 13476 -5582 c 3574 -3574 5582 -8422 5582 -13476 l 0 -160999 c 0 -10526 -8533 -19058 -19058 -19058 l -191020 -0 l 0 199115" class="C1" /><path d="M 287096 67814 l -0 191020 c -0 5055 2008 9902 5582 13476 c 3574 3574 8422 5582 13476 5582 l 160999 0 c 10526 0 19058 -8533 19058 -19058 l 0 -191020 l -199115 0" class="C1" /><path d="M 504794 67814 l -0 191020 c -0 5055 2008 9902 5582 13476 c 3574 3574 8422 5582 13476 5582 l 160999 0 c 10526 0 19058 -8533 19058 -19058 l 0 -191020 l -199115 0" class="C1" /><path d="M 67800 268674 l 210078 0 l 0 -199115 l -210078 -0 l 0 199115" class="C1" /><path d="M 57260 491757 l -38202 -0 c -10526 -0 -19058 -8533 -19058 -19058 l 0 -172061 c -0 -5055 2008 -9902 5582 -13476 c 3574 -3574 8422 -5582 13476 -5582 l 38202 -0 l 0 210177" class="C1" /><path d="M 57260 274205 l -38202 0 c -10526 0 -19058 -8533 -19058 -19058 l 0 -172061 c -0 -5055 2008 -9902 5582 -13476 c 3574 -3574 8422 -5582 13476 -5582 l 38202 0 l -0 210177" class="C1" /><path d="M 62600 59019 l 0 -38202 c -0 -10526 8533 -19058 19058 -19058 l 172061 0 c 5055 -0 9902 2008 13476 5582 c 3574 3574 5582 8422 5582 13476 l 0 38202 l -210177 -0" class="C1" /><path d="M 276415 57274 l 0 -38202 c -0 -10526 8533 -19058 19058 -19058 l 172061 0 c 5055 -0 9902 2008 13476 5582 c 3574 3574 5582 8422 5582 13476 l 0 38202 l -210177 -0" class="C1" /><path d="M 494112 57274 l 0 -38202 c -0 -10526 8533 -19058 19058 -19058 l 172061 0 c 5055 -0 9902 2008 13476 5582 c 3574 3574 5582 8422 5582 13476 l 0 38202 l -210177 -0" class="C1" /><path d="M 782399 86872 l 0 160905 c -0 5055 -2008 9902 -5582 13476 c -3574 3574 -8422 5582 -13476 5582 l -31321 -0 c -10526 0 -19058 -8533 -19058 -19058 l -0 -179963 l 50379 -0 c 10526 -0 19058 8533 19058 19058" class="C1" /></g></svg>